<svg width="24" height="26" viewBox="0 0 24 26" fill="none" xmlns="http://www.w3.org/2000/svg">
<path id="Vector" d="M20.8843 11.9997C18.6096 11.0025 16.612 9.46631 15.0641 7.52403C13.5162 5.58174 12.4646 3.29174 12 0.851929C11.5365 3.29217 10.4853 5.58267 8.93725 7.52513C7.3892 9.46758 5.39103 11.0034 3.11573 11.9997C2.22145 12.392 0 12.9992 0 12.9992C0 12.9992 2.22445 13.6049 3.11573 14.0002C5.39009 14.9977 7.38737 16.5339 8.93501 18.4762C10.4826 20.4185 11.5341 22.7084 11.9985 25.148C12.4621 22.7076 13.5136 20.417 15.0619 18.4746C16.6102 16.5321 18.6087 14.9963 20.8843 14.0002C21.7786 13.6079 24 12.9992 24 12.9992C24 12.9992 21.7756 12.395 20.8843 11.9997Z" fill="#F9C719"/>
</svg>
